<svg width="1600" height="1095" viewBox="0 0 1600 1095" fill="none" xmlns="http://www.w3.org/2000/svg">
<rect x="-1.54785" y="2.00049" width="1594.08" height="1093" fill="white"/>
<path d="M-418 475.081C-387.031 458.528 -312.837 469.663 -263.813 646.633C-202.534 867.846 3.33881 738.509 77.5229 715.96C235.361 667.985 433.444 -37.6124 668 3.7493" stroke="#00857A"/>
<path d="M-414 613.639C-376.74 590.806 -293.554 561.05 -258.893 624.688C-215.567 704.235 -193.904 823.556 -103.786 795.936C-13.6674 768.315 -101.283 487.317 46.9891 523.044C261.02 574.616 460.451 425.293 471.477 325.695C483.059 221.078 297.264 60.9092 402.564 2.00048" stroke="#00857A"/>
<path d="M-19 804C26.6268 790.827 132.774 730.164 205 871C295.283 1047.05 620.757 803.975 730.052 786.03C962.594 747.851 1254.43 186.321 1600 219.238" stroke="#00857A"/>
<path d="M757.5 2.00031C820.115 -22.7498 650.5 391.5 567 455C477.171 523.314 529.058 657.534 680.5 627.595C831.942 597.655 991.331 571.274 1240.5 610.001C1600.17 665.903 1476.78 460.832 1495.31 352.872C1514.77 239.472 1202.55 65.8549 1379.5 2.00031" stroke="#00857A"/>
</svg>
