<svg width="1600" height="1094" viewBox="0 0 1600 1094" fill="none" xmlns="http://www.w3.org/2000/svg">
<rect y="29" width="1600" height="1065" fill="white"/>
<path d="M-418 591.899C-393.376 581.893 -334.383 588.625 -295.403 695.595C-246.679 829.308 -82.9852 751.129 -24 737.5C101.5 708.501 259 281.999 445.5 307" stroke="#00857A"/>
<path d="M-414.07 645.567C-380.278 626.769 -304.833 602.27 -273.398 654.664C-234.104 720.156 -214.457 818.394 -132.726 795.653C-50.9945 772.913 -130.456 541.565 4.01697 570.979C198.129 613.439 379 490.5 389 408.5C399.504 322.368 231 190.5 326.5 142" stroke="#00857A"/>
<path d="M445 307C582 354.5 943.627 334.095 867.5 554.5C821.039 689.016 1079.01 610.129 1138 596.5C1263.5 567.501 1421 140.998 1607.5 166" stroke="#00857A"/>
<path d="M325.5 142.5C430.5 93.5001 857.167 459.27 888.602 511.664C927.896 577.156 947.543 677.394 1029.27 654.654C1111.01 631.913 1031.54 400.565 1166.02 429.979C1360.13 472.439 1541 349.5 1551 267.5C1561.5 181.368 1393 49.5001 1488.5 1.00006" stroke="#00857A"/>
</svg>
