<svg width="50" height="50" viewBox="0 0 50 50" fill="none" xmlns="http://www.w3.org/2000/svg">
<rect width="50" height="50" fill="white"/>
<path d="M25 12.7177C28.9882 12.7177 29.4824 12.7177 31.0706 12.7882C32.5177 12.8588 33.3294 13.1059 33.8588 13.3177C34.5647 13.6 35.0588 13.9176 35.5882 14.4471C36.1176 14.9765 36.4353 15.4706 36.7177 16.1765C36.9294 16.7059 37.1765 17.4824 37.2471 18.9647C37.3177 20.5529 37.3177 21.0118 37.3177 25.0353C37.3177 29.0235 37.3177 29.5177 37.2471 31.1059C37.1765 32.5529 36.9294 33.3647 36.7177 33.8941C36.4353 34.6 36.1176 35.0941 35.5882 35.6235C35.0588 36.1529 34.5647 36.4706 33.8588 36.7529C33.3294 36.9647 32.5529 37.2118 31.0706 37.2824C29.4824 37.3529 29.0235 37.3529 25 37.3529C21.0118 37.3529 20.5176 37.3529 18.9294 37.2824C17.4823 37.2118 16.6706 36.9647 16.1412 36.7529C15.4353 36.4706 14.9412 36.1529 14.4118 35.6235C13.8824 35.0941 13.5647 34.6 13.2823 33.8941C13.0706 33.3647 12.8235 32.5882 12.7529 31.1059C12.6823 29.5177 12.6823 29.0588 12.6823 25.0353C12.6823 21.0471 12.6823 20.5529 12.7529 18.9647C12.8235 17.5176 13.0706 16.7059 13.2823 16.1765C13.5647 15.4706 13.8824 14.9765 14.4118 14.4471C14.9412 13.9176 15.4353 13.6 16.1412 13.3177C16.6706 13.1059 17.4471 12.8588 18.9294 12.7882C20.5176 12.7177 21.0118 12.7177 25 12.7177ZM25 10C20.9412 10 20.4118 10 18.8235 10.1059C17.2353 10.1765 16.1412 10.4235 15.1882 10.8118C14.2 11.2 13.3529 11.6941 12.5412 12.5412C11.6941 13.3882 11.2 14.2 10.8118 15.1882C10.4235 16.1412 10.1765 17.2353 10.1059 18.8235C10.0353 20.4118 10 20.9412 10 25C10 29.0588 10 29.5882 10.1059 31.1765C10.1765 32.7647 10.4235 33.8588 10.8118 34.8118C11.2 35.8 11.6941 36.6471 12.5412 37.4588C13.3882 38.3059 14.2 38.8 15.1882 39.1882C16.1412 39.5765 17.2353 39.8235 18.8235 39.8941C20.4118 39.9647 20.9412 40 25 40C29.0588 40 29.5882 40 31.1765 39.8941C32.7647 39.8235 33.8588 39.5765 34.8118 39.1882C35.8 38.8 36.6471 38.3059 37.4588 37.4588C38.3059 36.6118 38.8 35.8 39.1882 34.8118C39.5765 33.8588 39.8235 32.7647 39.8941 31.1765C39.9647 29.5882 40 29.0588 40 25C40 20.9412 40 20.4118 39.8941 18.8235C39.8235 17.2353 39.5765 16.1412 39.1882 15.1882C38.8 14.2 38.3059 13.3529 37.4588 12.5412C36.6118 11.6941 35.8 11.2 34.8118 10.8118C33.8588 10.4235 32.7647 10.1765 31.1765 10.1059C29.5882 10.0353 29.0588 10 25 10Z" fill="#101010"/>
<path d="M25 17.3059C20.7294 17.3059 17.3059 20.7647 17.3059 25C17.3059 29.2706 20.7647 32.6941 25 32.6941C29.2706 32.6941 32.6941 29.2353 32.6941 25C32.6941 20.7647 29.2706 17.3059 25 17.3059ZM25 30.0118C22.2471 30.0118 19.9883 27.7883 19.9883 25C19.9883 22.2118 22.2118 19.9883 25 19.9883C27.7883 19.9883 30.0118 22.2118 30.0118 25C30.0118 27.7883 27.753 30.0118 25 30.0118Z" fill="#101010"/>
<path d="M33.0114 18.8234C34.0056 18.8234 34.8114 18.0175 34.8114 17.0234C34.8114 16.0293 34.0056 15.2234 33.0114 15.2234C32.0173 15.2234 31.2114 16.0293 31.2114 17.0234C31.2114 18.0175 32.0173 18.8234 33.0114 18.8234Z" fill="#101010"/>
</svg>
